<svg xmlns="http://www.w3.org/2000/svg" width="800" height="800" viewBox="0 0 800 800">
  <defs>
    <linearGradient id="bg" x1="0" y1="0" x2="0" y2="1">
      <stop offset="0" stop-color="#3A1F0E"/><stop offset="1" stop-color="#160B05"/>
    </linearGradient>
    <linearGradient id="gem" x1="0" y1="0" x2="0" y2="1">
      <stop offset="0" stop-color="#F0CD82"/><stop offset="0.5" stop-color="#C9972F"/><stop offset="1" stop-color="#8F6318"/>
    </linearGradient>
    <radialGradient id="glow" cx="0.5" cy="0.45" r="0.6">
      <stop offset="0" stop-color="#F0CD82" stop-opacity="0.6"/><stop offset="1" stop-color="#F0CD82" stop-opacity="0"/>
    </radialGradient>
  </defs>
  <rect width="800" height="800" rx="64" fill="url(#bg)"/>
  <circle cx="400" cy="360" r="310" fill="url(#glow)"/>
  <path d="M262 216 l30 44 46 -58 62 74 62 -74 46 58 30 -44 -24 132 -228 0 z" fill="url(#gem)" opacity="0.95"/>
  <polygon points="400,300 540,430 490,640 310,640 260,430" fill="url(#gem)"/>
  <polygon points="400,300 490,640 310,640" fill="#FFFFFF" opacity="0.3"/>
  <polygon points="400,300 540,430 490,640" fill="#5C3E0F" opacity="0.35"/>
  <path d="M614 176 l8 20 20 8 -20 8 -8 20 -8 -20 -20 -8 20 -8 z" fill="#FFFFFF" opacity="0.9"/>
  <path d="M176 300 l6 15 15 6 -15 6 -6 15 -6 -15 -15 -6 15 -6 z" fill="#FFFFFF" opacity="0.7"/>
  <text x="400" y="712" text-anchor="middle" font-family="Georgia, serif" font-size="50" font-weight="bold" fill="#F6F1E7">Monthly Champion</text>
  <text x="400" y="756" text-anchor="middle" font-family="Verdana, sans-serif" font-size="19" letter-spacing="6" fill="#F0CD82">CRYSTAL Z · VOUCHER</text>
</svg>
