<svg xmlns="http://www.w3.org/2000/svg" width="800" height="800" viewBox="0 0 800 800">
  <defs>
    <linearGradient id="bg" x1="0" y1="0" x2="0" y2="1">
      <stop offset="0" stop-color="#0E3B49"/><stop offset="1" stop-color="#081E27"/>
    </linearGradient>
    <linearGradient id="gem" x1="0" y1="0" x2="0" y2="1">
      <stop offset="0" stop-color="#B3A0FF"/><stop offset="1" stop-color="#5A3FD6"/>
    </linearGradient>
    <radialGradient id="glow" cx="0.5" cy="0.45" r="0.55">
      <stop offset="0" stop-color="#7C5CFF" stop-opacity="0.55"/><stop offset="1" stop-color="#7C5CFF" stop-opacity="0"/>
    </radialGradient>
  </defs>
  <rect width="800" height="800" rx="64" fill="url(#bg)"/>
  <circle cx="400" cy="360" r="300" fill="url(#glow)"/>
  <circle cx="400" cy="370" r="238" fill="none" stroke="#B3A0FF" stroke-opacity="0.35" stroke-width="6"/>
  <polygon points="400,120 560,270 505,600 295,600 240,270" fill="url(#gem)"/>
  <polygon points="400,120 505,600 295,600" fill="#FFFFFF" opacity="0.26"/>
  <polygon points="400,120 560,270 505,600" fill="#2E2270" opacity="0.3"/>
  <path d="M614 176 l7 18 18 7 -18 7 -7 18 -7 -18 -18 -7 18 -7 z" fill="#FFFFFF" opacity="0.8"/>
  <path d="M170 300 l6 15 15 6 -15 6 -6 15 -6 -15 -15 -6 15 -6 z" fill="#FFFFFF" opacity="0.6"/>
  <text x="400" y="690" text-anchor="middle" font-family="Georgia, serif" font-size="52" font-weight="bold" fill="#F6F1E7">Gem Guardian</text>
  <text x="400" y="738" text-anchor="middle" font-family="Verdana, sans-serif" font-size="20" letter-spacing="6" fill="#B3A0FF">CRYSTAL Z · TIER 3</text>
</svg>
