<svg xmlns="http://www.w3.org/2000/svg" width="800" height="800" viewBox="0 0 800 800">
  <defs>
    <linearGradient id="bg" x1="0" y1="0" x2="0" y2="1">
      <stop offset="0" stop-color="#0E3B49"/><stop offset="1" stop-color="#081E27"/>
    </linearGradient>
    <linearGradient id="gem" x1="0" y1="0" x2="0" y2="1">
      <stop offset="0" stop-color="#8FE9E2"/><stop offset="1" stop-color="#1E7D96"/>
    </linearGradient>
    <radialGradient id="glow" cx="0.5" cy="0.45" r="0.55">
      <stop offset="0" stop-color="#3EC9C0" stop-opacity="0.55"/><stop offset="1" stop-color="#3EC9C0" stop-opacity="0"/>
    </radialGradient>
  </defs>
  <rect width="800" height="800" rx="64" fill="url(#bg)"/>
  <circle cx="400" cy="360" r="300" fill="url(#glow)"/>
  <polygon points="400,120 560,270 505,600 295,600 240,270" fill="url(#gem)"/>
  <polygon points="400,120 505,600 295,600" fill="#FFFFFF" opacity="0.25"/>
  <polygon points="400,120 560,270 505,600" fill="#0C2F3A" opacity="0.2"/>
  <path d="M614 176 l7 18 18 7 -18 7 -7 18 -7 -18 -18 -7 18 -7 z" fill="#FFFFFF" opacity="0.8"/>
  <path d="M196 480 l5 13 13 5 -13 5 -5 13 -5 -13 -13 -5 13 -5 z" fill="#FFFFFF" opacity="0.55"/>
  <text x="400" y="690" text-anchor="middle" font-family="Georgia, serif" font-size="52" font-weight="bold" fill="#F6F1E7">First Facet</text>
  <text x="400" y="738" text-anchor="middle" font-family="Verdana, sans-serif" font-size="20" letter-spacing="6" fill="#3EC9C0">CRYSTAL Z · TIER 1</text>
</svg>
